<svg height="73" viewBox="0 0 73 73" width="73" xmlns="http://www.w3.org/2000/svg"><g fill="none" fill-rule="evenodd"><rect fill="#fff" fill-rule="nonzero" height="71" rx="14" stroke="#5b3d25" stroke-width="2" width="71" x="1" y="1"/><g transform="translate(11 7)"><path d="m49.9860971 44.8808286-22.523112 13.0133593c-.9697474.5630743-2.1584675.5630743-3.1282126 0l-22.52311658-13.0133593c-.96974508-.5630776-1.56410528-1.5953872-1.56410528-2.6902606v-26.0267117c0-1.1261559.5943602-2.1271832 1.56410528-2.6902612l22.52311658-13.01335633c.9697451-.56307796 2.1584652-.56307796 3.1282093 0l22.523112 13.01335633c.9697457.563078 1.5641086 1.5953875 1.5641086 2.6902612v26.0267117c-.0312754 1.0948734-.6256448 2.127183-1.5641086 2.6902606z" fill="#8d6748"/><g fill="#fff" fill-rule="nonzero"><path d="m25.8675956 4.93357992c.3128214 0 .5943602.09384639.8759003.25025691l19.4574673 11.23027607c.531799.3128211.8758967.9071813.8758967 1.5328234v22.4605498c0 .6256448-.344101 1.2200043-.8758967 1.5328267l-19.4574673 11.2302741c-.2815401.1564128-.5630789.2502552-.8759003.2502552-.3128211 0-.6256421-.0938424-.875899-.2502552l-19.45746993-11.2302741c-.53179573-.3128224-.87589935-.9071819-.87589935-1.5328267v-22.4605498c0-.6256421.34410362-1.2200023.87589935-1.5328234l19.45746993-11.23027607c.2815388-.15641052.5943602-.25025691.875899-.25025691zm0-.93846316c-.4692316 0-.9384632.12512862-1.3451303.37538553l-19.45747021 11.23027611c-.84461712.4692315-1.34513061 1.3764125-1.34513061 2.3148756v22.4605535c0 .9697424.50051349 1.8456424 1.34513061 2.3148744l19.45747021 11.2302741c.4066671.2502585.8758987.3753894 1.3451303.3753894s.9384628-.1251309 1.3451342-.3753894l19.457462-11.2302741c.8446181-.469232 1.3451319-1.3764106 1.3451319-2.3148744v-22.4605535c0-.969745-.5005138-1.8456441-1.3451319-2.3148756l-19.457462-11.23027611c-.4066714-.25025691-.8759026-.37538553-1.3451342-.37538553z"/><g transform="translate(21.879125 13.661287)"><path d="m6.75693493.5005137c0-.15641053-.12512842-.31282106-.31282106-.31282106h-2.94051798-2.94051798c-.15641053 0-.31282106.12512842-.31282106.31282106 0 1.06359161.15641053 4.72359803 1.72051584 6.50667808.06256421.06256421.12512842.09384632.21897474.09384632h2.62769692c.09384632 0 .15641053-.03128211.21897474-.09384632 1.56410531-1.75179794 1.72051584-5.41180437 1.72051584-6.50667808zm-2.31487586 5.69334332h-1.84564426c-.09384632 0-.15641053-.03128211-.21897474-.09384632-1.06359161-1.25128424-1.18872004-3.75385274-1.22000214-4.62975171 0-.15641053.12512842-.31282106.31282106-.31282106h2.06461901 2.064619c.15641053 0 .31282106.12512842.31282106.31282106 0 .87589897-.15641053 3.34718536-1.22000214 4.62975171-.09384631.06256421-.15641053.09384632-.25025685.09384632z" transform="translate(0 3.753853)"/><path d="m4.09795591 3.31590325s1.12615582-.65692423.43794948-1.84564426c-.40666738-.62564212-.59436001-1.15743793-.43794948-1.37641267-.40666738.5005137-1.09487372 1.0323095-.34410317 2.15846532.25025685.28153896.37538527.87589898.34410317 1.06359161z"/><path d="m2.84667166 3.40974957s.75077055-.43794948.28153896-1.25128424c-.28153896-.40666738-.40666738-.78205266-.28153896-.90718108-.28153895.34410316-.71948844.68820633-.21897474 1.47025899.15641053.15641053.21897474.56307791.21897474.68820633z"/><path d="m5.41180437 7.03847389c-.12512843.84461686-.37538528 1.81436215-.90718108 2.44000428-.06256422.06256421-.12512843.09384632-.18769264.09384632h-1.56410531c-.06256421 0-.15641053-.03128211-.18769263-.09384632-.37538528-.4692316-.62564213-1.09487372-.78205266-1.75179795 0 0 1.81436216.25025685 2.84667166-.12512842.75077055-.28153896.78205266-.56307791.78205266-.56307791z"/></g><g transform="translate(6.550893 25.548488)"><path d="m.18769264.21897474h1.15743792l1.90820848 2.94051798 1.90820848-2.94051798h1.15743792v6.25642124h-1.09487371v-4.47334119l-1.97077269 2.94051798h-.03128211l-1.93949058-2.90923587v4.47334118h-1.09487371z"/><path d="m11.9810467 6.56924229c-.4692316 0-.9071811-.09384631-1.3138485-.25025685-.4066674-.15641053-.75077055-.40666738-1.0323095-.68820633-.28153896-.28153896-.5005137-.62564212-.65692423-1.0323095-.15641053-.37538528-.25025685-.81333476-.25025685-1.25128425v-.03128211c0-.43794948.09384632-.84461686.25025685-1.25128424.15641053-.37538528.37538527-.71948845.68820633-1.03230951.28153896-.28153895.6256421-.5317958 1.0323095-.68820633.4066674-.18769264.8446169-.25025685 1.3138485-.25025685s.907181.09384632 1.3138484.25025685.7507706.40666738 1.0323095.68820633c.281539.28153896.5005137.62564213.6569243 1.03230951.1564105.37538527.2502568.81333476.2502568 1.25128424v.03128211c0 .43794949-.0938463.84461687-.2502568 1.25128425-.1564106.37538527-.3753853.71948844-.6882064 1.0323095-.2815389.28153895-.6256421.5317958-1.0323095.68820633-.4066674.18769264-.8446168.25025685-1.3138484.25025685zm0-1.00102739c.312821 0 .59436-.06256422.8446168-.18769264.2502569-.12512842.4692316-.28153896.6569243-.46923159.1876926-.18769264.312821-.43794949.4379494-.68820634.0938464-.28153895.1564106-.56307791.1564106-.84461686v-.03128211c0-.31282106-.0625642-.59436002-.1564106-.87589897-.0938463-.28153896-.2502568-.5005137-.4379494-.71948844-.1876927-.18769264-.4066674-.34410317-.6569243-.4692316-.2502568-.12512842-.5317958-.18769263-.8446168-.18769263-.3128211 0-.5943601.06256421-.8446169.18769263-.2502569.12512843-.4692316.28153896-.6569242.4692316-.1876927.18769263-.3128211.43794948-.4379495.68820633-.09384634.28153896-.15641055.56307791-.15641055.84461687v.0312821c0 .31282106.06256421.59436002.15641055.87589898.0938463.28153895.2502568.50051369.4379495.71948844.1876926.18769263.4066673.34410317.6569242.46923159.2502568.12512842.5630779.18769264.8446169.18769264z"/><path d="m20.5523437 6.56924229c-.4692315 0-.8758989-.09384631-1.2512842-.25025685-.3753853-.15641053-.7194884-.40666738-1.0010274-.68820633-.281539-.28153896-.5005137-.62564212-.6569242-1.0323095-.1564106-.40666738-.2502569-.81333476-.2502569-1.25128425v-.03128211c0-.43794948.0938463-.87589897.2502569-1.25128424.1564105-.37538528.3753852-.71948845.6569242-1.03230951.281539-.28153895.6256421-.5317958 1.0323095-.68820633s.8133348-.25025685 1.3138485-.25025685c.2815389 0 .5317958.0312821.7820526.06256421.2502569.06256421.4379495.12512842.6569242.18769264.1876927.09384632.3753853.18769264.5317959.31282106.1564105.12512842.312821.25025685.4692315.40666738l-.7194884.81333476c-.2502568-.21897474-.5005137-.40666738-.7820526-.56307791-.281539-.15641053-.5943601-.21897474-.9697453-.21897474-.3128211 0-.563078.06256421-.8133348.18769263-.2502568.12512843-.4692316.28153896-.6569242.4692316-.1876927.18769263-.3128211.43794948-.4379495.68820633-.0938463.28153896-.1564105.56307791-.1564105.84461687v.0312821c0 .31282106.0625642.59436002.1564105.87589898.0938463.28153895.2502568.50051369.4379495.71948844.1876926.18769263.4066674.37538527.6569242.46923159s.5317958.18769264.8133348.18769264c.3753852 0 .7194884-.06256422.9697453-.21897475.2502568-.15641053.5317958-.34410316.8133347-.59436001l.7194885.71948844c-.1564106.18769264-.3128211.31282106-.5005137.46923159-.1876927.15641053-.3753853.25025685-.563078.34410317-.1876926.09384632-.4379494.18769264-.6569242.21897474-.2815389.06256421-.5630779.06256421-.8446169.06256421z"/><path d="m25.3072239.21897474h1.0948737v2.59641481h3.0030822v-2.59641481h1.0948737v6.25642124h-1.0948737v-2.62769692h-3.0030822v2.62769692h-1.0948737z"/><path d="m35.34878.18769264h1.0010274l2.7528253 6.28770334h-1.1574379l-.6256421-1.5015411h-2.940518l-.6569243 1.5015411h-1.1261558zm1.5641053 3.81641695-1.0635916-2.50256849-1.0635916 2.50256849z"/></g><path d="m5.956533 33.994656h39.884686v1h-39.884686z"/><path d="m45.8412179 22.232585h-16.954906c0 .1818181-.0312753.3181814-.0312753.5h16.9861813z"/><path d="m5.95653309 22.232585v.5h15.98515641c0-.1818186-.0312819-.3181819-.0312819-.5z"/></g></g></g></svg>